<svg xmlns="http://www.w3.org/2000/svg" viewBox="0 0 1070.3 298.52"><defs><style>.cls-1{fill:#ec5242;}.cls-2{fill:#272a31;}.cls-3{fill:#d3d3d3;}</style></defs><g id="OBJECTS"><path class="cls-1" d="M231.57,119.83a78.18,78.18,0,0,0-76.64-78.16c-43.82-.83-79.69,35.87-79.69,79.7v66.86a1,1,0,0,0,1,1H96.66a1,1,0,0,1,1,1v76.26a1,1,0,0,0,1.72.8l102.21-86h0A78,78,0,0,0,231.57,119.83Z"/><path class="cls-2" d="M86,41.6A10.69,10.69,0,1,1,75.26,30.92,10.69,10.69,0,0,1,86,41.6Z"/><path class="cls-3" d="M140.1,136.43a.53.53,0,0,1-.47.92A52.81,52.81,0,0,1,113,120.53a1,1,0,0,1,0-1.42,52.72,52.72,0,0,1,26.35-16.73.52.52,0,0,1,.47.91,21.31,21.31,0,0,0,.3,33.14Z"/><path class="cls-3" d="M193.86,120.53a52.82,52.82,0,0,1-26.68,16.82.53.53,0,0,1-.47-.92,21.31,21.31,0,0,0,.3-33.14.52.52,0,0,1,.47-.91,52.94,52.94,0,0,1,26.38,16.73A1.12,1.12,0,0,1,193.86,120.53Z"/><path class="cls-2" d="M198.84,118.52a57.48,57.48,0,0,0-90.87,0,2.17,2.17,0,0,0,0,2.61,57.48,57.48,0,0,0,90.87,0A2.15,2.15,0,0,0,198.84,118.52Zm-85.87.6a52.88,52.88,0,0,1,26.36-16.74.52.52,0,0,1,.48.91,21.31,21.31,0,0,0,.28,33.14.52.52,0,0,1-.46.92A52.75,52.75,0,0,1,113,120.53,1.09,1.09,0,0,1,113,119.12Zm54.21,18.23a.52.52,0,0,1-.46-.92,21.32,21.32,0,0,0,.29-33.14.52.52,0,0,1,.47-.91,52.73,52.73,0,0,1,26.37,16.74,1.1,1.1,0,0,1,0,1.41A52.75,52.75,0,0,1,167.18,137.35Z"/><path class="cls-2" d="M345.83,195.23H332.19a5.87,5.87,0,0,1-3.74-1.14,7.22,7.22,0,0,1-2.16-2.85l-7.08-19.34H279.94l-7.08,19.34a6.34,6.34,0,0,1-2,2.75,5.68,5.68,0,0,1-3.74,1.24H253.33l37.3-94.79h18Zm-31.14-35.79-11.54-31.53q-.86-2.1-1.77-5c-.61-1.93-1.23-4-1.84-6.23-.56,2.23-1.15,4.31-1.77,6.26s-1.2,3.64-1.77,5.08l-11.47,31.4Z"/><path class="cls-2" d="M412.63,114.93H384.05v80.3H366.41v-80.3H337.83V100.44h74.8Z"/><path class="cls-2" d="M442.78,195.23h-17.7V100.44h17.7Z"/><path class="cls-2" d="M481.66,114.47v28.06h35.53v14.09H481.66v38.61H464V100.44h59.79v14Z"/><path class="cls-2" d="M546.63,94.08a33.44,33.44,0,0,1,4.26,10.78,30.39,30.39,0,0,1,.19,11.08,30.91,30.91,0,0,1-3.83,10.49,33.09,33.09,0,0,1-7.84,9l-5.11-3.09a2.2,2.2,0,0,1-.92-1,2.34,2.34,0,0,1-.23-1.11,3,3,0,0,1,.27-1.08,2.93,2.93,0,0,1,.62-.92,19.16,19.16,0,0,0,2.62-4.33,21.88,21.88,0,0,0,1.74-6,23.26,23.26,0,0,0-.13-7.14,20.81,20.81,0,0,0-3-7.61,4,4,0,0,1-.62-3.31,3.26,3.26,0,0,1,2.13-2Z"/><path class="cls-2" d="M617.56,117.68a6.18,6.18,0,0,1-1.67,2,3.71,3.71,0,0,1-2.2.62,5.7,5.7,0,0,1-3-1c-1.07-.68-2.35-1.43-3.84-2.27a31.54,31.54,0,0,0-5.21-2.26,22.14,22.14,0,0,0-7-1,21,21,0,0,0-6.42.88,13.38,13.38,0,0,0-4.62,2.46,9.81,9.81,0,0,0-2.79,3.77,12.4,12.4,0,0,0-.92,4.82,8.39,8.39,0,0,0,1.87,5.57,15.65,15.65,0,0,0,4.95,3.8,45.64,45.64,0,0,0,7,2.82c2.63.83,5.31,1.72,8.07,2.66a77.21,77.21,0,0,1,8.06,3.27,27.92,27.92,0,0,1,7,4.73,21.43,21.43,0,0,1,4.95,7,24.31,24.31,0,0,1,1.86,10,32.79,32.79,0,0,1-2.19,12,28,28,0,0,1-6.43,9.77,30.28,30.28,0,0,1-10.32,6.55,38,38,0,0,1-14,2.39,45,45,0,0,1-8.91-.88,46.42,46.42,0,0,1-8.43-2.53,45.18,45.18,0,0,1-7.57-3.93,36.24,36.24,0,0,1-6.29-5.11l5.18-8.46a5.5,5.5,0,0,1,1.7-1.54,4.37,4.37,0,0,1,2.23-.62,6.3,6.3,0,0,1,3.54,1.34q1.9,1.35,4.52,3a35.48,35.48,0,0,0,6.14,3,23.64,23.64,0,0,0,8.42,1.34c5,0,8.92-1.19,11.67-3.57s4.13-5.8,4.13-10.26a9.53,9.53,0,0,0-1.87-6.1,15.24,15.24,0,0,0-5-4,38.08,38.08,0,0,0-7-2.72c-2.63-.74-5.29-1.55-8-2.42a67,67,0,0,1-8-3.15,25.91,25.91,0,0,1-7-4.78,21.67,21.67,0,0,1-5-7.38,28,28,0,0,1-1.87-10.91,25.77,25.77,0,0,1,2.06-10.1,26.19,26.19,0,0,1,6-8.72,29.51,29.51,0,0,1,9.7-6.1,35.65,35.65,0,0,1,13.25-2.29A44.19,44.19,0,0,1,609.89,102,35,35,0,0,1,622,109.35Z"/><path class="cls-2" d="M688.56,114.47v26.29h33.17v13.57H688.56v26.81h42.08v14.09H670.85V100.44h59.79v14Z"/><path class="cls-2" d="M823.27,195.23H805.71a4.36,4.36,0,0,1-2.92-.91,7.71,7.71,0,0,1-1.74-2.1l-22-36.39a12.77,12.77,0,0,1-1.25,2.82l-21,33.57a13.49,13.49,0,0,1-1.8,2.06,3.72,3.72,0,0,1-2.66.95H735.89l31.46-48.77-30.22-46H754.7a5.41,5.41,0,0,1,2.66.49,5,5,0,0,1,1.54,1.61l21.57,34.74A27.91,27.91,0,0,1,782,134l19.8-31.14a5.49,5.49,0,0,1,1.57-1.83,3.74,3.74,0,0,1,2.16-.59h16.85l-30.48,45.3Z"/><path class="cls-2" d="M865,100.44a53.92,53.92,0,0,1,16.45,2.23,31.62,31.62,0,0,1,11.48,6.23,24.73,24.73,0,0,1,6.72,9.57,33,33,0,0,1,2.19,12.19,33.66,33.66,0,0,1-2.29,12.62,26.22,26.22,0,0,1-6.89,9.87,32,32,0,0,1-11.5,6.42,51.38,51.38,0,0,1-16.16,2.3H851.79v33.36H834.16V100.44Zm0,47.66a26.6,26.6,0,0,0,8.46-1.21,16,16,0,0,0,6-3.48A14,14,0,0,0,883,137.9a21.18,21.18,0,0,0,1.18-7.24,19.24,19.24,0,0,0-1.18-6.88,13.64,13.64,0,0,0-3.54-5.25,16,16,0,0,0-6-3.31,28.33,28.33,0,0,0-8.52-1.15H851.79v34Z"/><path class="cls-2" d="M1005.72,147.84a53,53,0,0,1-3.44,19.3,45.34,45.34,0,0,1-9.74,15.38,44.16,44.16,0,0,1-15.14,10.12,54.78,54.78,0,0,1-39.27,0A44.62,44.62,0,0,1,923,182.52a45.48,45.48,0,0,1-9.8-15.38,55.44,55.44,0,0,1,0-38.61,45.44,45.44,0,0,1,9.8-15.37A44.5,44.5,0,0,1,938.13,103a51,51,0,0,1,19.6-3.64,53.39,53.39,0,0,1,13.57,1.67A48,48,0,0,1,983,105.78a43,43,0,0,1,9.54,7.41,45.08,45.08,0,0,1,7.18,9.74,48.06,48.06,0,0,1,4.49,11.66A55.93,55.93,0,0,1,1005.72,147.84Zm-18,0a43.49,43.49,0,0,0-2.1-14,29.94,29.94,0,0,0-6-10.52,25.53,25.53,0,0,0-9.41-6.62,35.06,35.06,0,0,0-25,0,25.8,25.8,0,0,0-9.44,6.62,29.71,29.71,0,0,0-6,10.52,47.68,47.68,0,0,0,0,28,29.4,29.4,0,0,0,6,10.49,26,26,0,0,0,9.44,6.59,35.06,35.06,0,0,0,25,0,25.69,25.69,0,0,0,9.41-6.59,29.63,29.63,0,0,0,6-10.49A43.43,43.43,0,0,0,987.69,147.84Z"/></g></svg>